<svg id="e6c7113e-eda4-4f50-9341-1bcc3eed7434" data-name="Livello 1" xmlns="http://www.w3.org/2000/svg" width="264.58mm" height="126.87mm" viewBox="0 0 750 359.63">
  <g>
    <path d="M665.7,352.57c6.31,1.69,12.51,3.26,18.82,4.84,6,1.47,10.49-1,12.2-6.73,5.35-17.56,10.59-35.12,15.94-52.69,1.28-4.41,2.46-8.72,4-13,1.17-3.68,4.38-5.26,8.23-4.42,1.93.42,4,.95,6,1.48,4.81,1.26,10.26-1.37,11.76-5.79,2.46-7.36,4.71-14.72,7.17-22,.53-1.58.1-2.21-1.39-2.64-4.07-1-8.13-2.31-12.3-3.36-6.64-1.68-13.38-3.47-20.22-4.52a28.07,28.07,0,0,0-17,2.63,9.81,9.81,0,0,0-1.61.42c-8.45,4.2-15,10.2-18.5,18.93-1.07,2.94-1.92,6-2.78,9-4.28,16.09-8.45,32.17-12.63,48.26-1.6,6-3.42,12-4.81,18.09-1.39,5.57,1.5,10.09,7.17,11.46" style="fill: #088487"/>
    <path d="M621.2,263.3c-.64,3.15-1.29,6.41-2,9.46-1,4.1-.22,3.79-4.39,2.95-6.09-1.16-12.19-2.11-18.18-3.16-.75-.21-1.4-.31-2.25-.53,1.39-6.51,2.67-12.93,3.95-19.55,6.43,1.15,12.52,2.31,18.62,3.58,3.31.63,4.92,3.46,4.28,7.25m32.31-28.39-.33-.32h-.1a1.89,1.89,0,0,0-.65-.94,31.65,31.65,0,0,0-15.51-8.52c-6.2-1.48-12.62-2.52-19-3.58-15.51-2.63-30.91-5.15-46.42-7.57-5.46-.84-9.73,2.32-10.81,7.68-.64,3.57-1.28,7.15-1.82,10.62-2.78,17.67-5.67,35.33-8.34,53-.75,5.36-1.71,10.83-1.6,16.19.42,15.77,12.19,29.65,27.48,33,4.39.95,8.89,1.47,13.27,2.32,14.87,2.84,29.85,5.68,44.72,8.62,5.13.95,9.41-1.57,10.8-6.41,1.07-3.89,2-7.68,3.1-11.57.32-1.26.53-2.42.86-3.68,1.07-5.15-1.18-9.46-6.31-11a91.32,91.32,0,0,0-9.31-2.21c-12.94-2.53-25.88-4.94-38.83-7.46-2.78-.53-4.49-1.8-4.6-4.53-.11-3.15.64-6.3,1-9.57,7.49,1.37,14.44,2.53,21.29,3.9,10.91,2.1,21.83,4.41,32.63,6.51,6,1.26,10.7-1.68,12.08-7.35,2.14-8.21,4.18-16.3,6.21-24.4,2.67-11.15.32-21.13-6.85-30.18a22.12,22.12,0,0,0-2.88-2.52" style="fill: #088487"/>
    <path d="M441.6,210.51q-.81,14.19-1.61,28.39c-1,17-1.92,34.07-3,51.1-.31,6.53-.85,13-1.17,19.57a10.06,10.06,0,0,0,9.73,10.4c6.31.32,12.73.53,19,1.27a9.6,9.6,0,0,0,10.59-8.63c.65-7.25,1.29-14.51,1.93-21.66,1.39-15.45,2.89-30.81,4.28-46.16.21-2.31.54-4.52.75-6.83,3.95.31,7.7.63,11.55.94s6.41,2.95,6,6.84c-1.39,13.77-2.88,27.55-4.38,41.43-1,8.83-2,17.77-2.89,26.7a9.07,9.07,0,0,0,8.12,10.31c6.86.95,13.59,1.79,20.44,2.42a9.36,9.36,0,0,0,10.59-8.2c1.07-8,2.24-16,3.31-24,1.18-8.2,2.46-16.4,3.64-24.5,1.07-7.68,2-15.25,3.21-22.92,1.71-11.36-1.5-21.24-9.41-29.76a9.43,9.43,0,0,0-2-1.47c0-.1-.11-.1-.11-.1h-.11c-5.88-5.79-13-8.52-21.18-9.47-6.1-.63-12.2-1.26-18.4-1.68-12.94-1.05-26-2-39-2.73a9.15,9.15,0,0,0-9.84,8.72" style="fill: #088487"/>
    <path d="M423.52,288.64c.32-7.15.64-14.3,1-21.35.43-11,1.07-22.07,1.28-33.12.22-9.78-4.06-17.88-11-24.6-1-.95-2.36-1.58-3.53-2.52h-.11a.11.11,0,0,0-.11-.11h-.1A9.06,9.06,0,0,0,410,206a34.44,34.44,0,0,0-20.75-6.52c-18.83,0-37.65.21-56.48.42-6.63.11-10.27,3.79-10.06,10.31.32,10.19.75,20.39,1.18,30.59.86,22.51,1.71,44.9,2.68,67.41.21,6.31,4.59,10.09,11,10,6.1-.21,12.09-.32,18.19-.43,6.42-.1,10.05-3.47,10.05-9.77,0-4.74-.1-9.47-.1-14.2,0-19.56-.11-39-.11-58.57,0-1.26.32-1.79,1.71-1.79,3.53.11,7.06,0,10.59,0a5.73,5.73,0,0,1,5.78,5.26,27.84,27.84,0,0,1,.1,4.21q-.31,32.32-.64,64.66c0,6.21,4.17,10.2,10.38,10.31s12.4,0,18.5.42a9.55,9.55,0,0,0,10.59-9.46c.32-6.73.54-13.46.86-20.19" style="fill: #088487"/>
    <path d="M299.86,116.61c1.07,4.73,1.82,9.57,3.42,14.2A95.67,95.67,0,0,0,315,154.15c4.38,6.52,9.09,12.72,15,18,8.34,7.35,18,9.46,28.67,6.2,3.2-1.06,6.31-2.42,9.52-3.68a11.92,11.92,0,0,1,9.3-.11c1.18.52,2.36,1,3.53,1.47,4.61,1.89,9.1,3.68,14.12,3.79a29.21,29.21,0,0,0,22-8.63,105.2,105.2,0,0,0,19.25-25.65c7.39-13.15,11.45-27,10.59-42.16a42.12,42.12,0,0,0-39.25-40c-19.36-1.57-21.08,4.95-34.45,4.95-14.12,0-32.41-16.19-56.9,2.42s-16.37,45-16.37,45c-.11.42-.22.63-.11.84" style="fill: #088487"/>
    <path d="M373.88,58.88c3.43-11.46,7.71-22.6,15.09-32.27a38.49,38.49,0,0,1,13.69-11.68c.64-.31,1.39-.52,2.14-.84C394.53,22.4,385.76,31.44,382,45c3.85,0,7.17.31,10.49.1,7.38-.42,14.23-2.63,19.57-8,4.6-4.42,6.63-10.1,8.34-16.2,1.5-5.46,3.43-10.83,5.35-16.29A40.72,40.72,0,0,1,428.23,0c-2,.21-3.75.32-5.35.63-11.67,1.58-22.57,5-32,12.2-8.24,6.31-13.05,14.51-13.79,24.92a9.66,9.66,0,0,1-1.18,4.1c-3.21,6.2-4.92,12.83-6.63,19.46,3.52.73,3.73.62,4.59-2.43" style="fill: #088487"/>
    <path d="M353.35,44a21.71,21.71,0,0,0,12.51,10.63c-.32-3.79-.32-7.16-1.07-10.31s-2.24-6.2-3.42-9.26c5.35,2.32,6.85,7.37,8.55,12.52,1.93-4.63,1.61-7.89-.42-11.88a26.92,26.92,0,0,0-10.48-11c-3-1.9-6.21-3.26-9.53-4.95,0,4-.1,7.36,0,10.73A30.12,30.12,0,0,0,353.35,44" style="fill: #088487"/>
    <path d="M269.27,269.19c.43,5.47.85,10.94,1.39,16.4.21,1.26-.22,1.89-1.5,1.89-5.45.42-10.8.85-16.9,1.37-2.89.11-5.35-2-5.77-5.57-.43-3.89-.86-7.68-1.29-11.46-.22-1.26-.11-1.89,1.39-2,7.06-.63,14-1.37,21.08-2,1.06-.11,1.49.31,1.6,1.37M206.16,209c-1.18.11-2.36.11-2.14,1.89,1.17,7.57,2,15.14,3.1,22.72.64,4.62,5.88,8.83,10.59,8.51,6.1-.53,12.09-1.26,18.19-1.89,8.12-.84,16.14-1.68,24.28-2.42,3.63-.32,6.09,1.68,6.63,5.26.32,1.89.32,3.89.53,5.78.11,1.16-.32,1.58-1.5,1.68-4.49.32-9.09.64-13.58,1.16-13.48,1.37-27,2.73-40.43,4.2-6.32.74-9.31,5.06-8.46,11.26s1.82,12.3,2.57,18.4c1,6.73,1.82,13.35,5.56,19.35,7.17,11.78,17.44,18.5,31.13,19.13,9.63-.84,18.61-1.57,27.71-2.2,10.8-.84,21.6-1.79,32.52-2.21,4.71-.21,9.95-4.31,9.52-10.41-.54-6.52-.86-13-1.18-19.45-.43-7.05-.75-14.2-1.18-21.24-.43-9.26-1.06-18.62-1.39-28-.21-8.63-2-16.62-7.7-23.46-8.77-10.4-20-15.24-33.8-14.08-11.77.94-23.54,2.1-35.31,3.26-8.55.84-17.11,1.78-25.66,2.73" style="fill: #088487"/>
    <path d="M173.64,247.84c3.63-.52,7.16-1.15,10.69-1.68,5.14-.73,8.45-4.31,8.24-9.46-.11-2.21-.53-4.42-.75-6.53-.86-5.67-1.71-11.24-2.46-16.92-.21-1.48-1-2.21-2.56-1.79-2.14.42-4.39.63-6.53.94-4,.63-8,1.16-12,1.79-1.4.21-2.14-.1-2.14-1.57-.11-1.26-.43-2.53-.43-3.79-.11-7.36,2.57-13.57,9.31-17.24,3-1.8,6.52-2.74,10.27-4.21-.32-2.63-.75-5.58-1.29-8.52-1.07-7.47-2.25-14.83-3.31-22.29-.22-1.47-.86-2-2.47-1.79-3.73.74-7.69,1.05-11.44,1.89-17.87,3.89-31.34,13.68-39.58,30-4.39,8.83-6.31,18.51-4.49,28.29,3.1,16.83,6.73,33.54,10.16,50.37,2.67,13.14,5.24,26.39,8,39.53,1.5,7.89,3.1,15.67,4.81,23.56,1.19,4.94,6.1,8.51,10.59,7.78,6.53-1.05,13.06-2.21,19.58-3.26s9.52-5,8.45-11.46c-2.35-14.94-4.92-29.76-7.49-44.59-1.49-9-3-18-4.6-27-.21-1.26,0-1.89,1.4-2" style="fill: #088487"/>
    <path d="M60.56,282.54c-2.67-10-5.34-19.66-8-29.33-1.17-4.53-2.34-9.05-3.74-13.57-.42-1.58-.11-2.1,1.6-2.42,3.53-.74,7-1.68,10.49-2.42,4.07-.84,7,.95,7.91,4.84,2.68,10.62,5.35,21.24,8,31.75,1.17,4.73-.75,7.68-5.56,8.83-3.54.74-7,1.59-10.71,2.32M92,310.62a35.16,35.16,0,0,0,27-41.75c-2-10.41-4.38-20.82-6.74-31.23-1-4.63-1.71-9.36-3.52-13.67-6.85-15.66-24.08-24.82-41.19-22-5.45.85-10.69,2.22-16,3.48q-21.82,5.21-43.65,10.72c-6.41,1.58-9.09,6.52-7.27,12.72C6.44,247.74,12.21,266.45,18,285.28c5.14,16.61,10.16,33.22,15.3,49.84,1.71,5.67,3.53,11.46,5.35,17.13a10,10,0,0,0,12.19,7.05c6.2-1.47,12.41-2.95,18.51-4.63,6.53-1.68,9-5.88,7.28-12.4-2.25-8.73-4.5-17.35-6.85-26.29a2.83,2.83,0,0,1,1.07-.42C77.9,313.88,85,312.09,92,310.62" style="fill: #088487"/>
  </g>
</svg>
