<svg id="visual" viewBox="0 0 900 170" width="900" height="170" xmlns="http://www.w3.org/2000/svg" xmlns:xlink="http://www.w3.org/1999/xlink" version="1.1"><rect x="0" y="0" width="900" height="170" fill="#10b094"></rect><path d="M0 74L21.5 75.8C43 77.7 86 81.3 128.8 78.5C171.7 75.7 214.3 66.3 257.2 69.5C300 72.7 343 88.3 385.8 94.8C428.7 101.3 471.3 98.7 514.2 89C557 79.3 600 62.7 642.8 60.7C685.7 58.7 728.3 71.3 771.2 78.7C814 86 857 88 878.5 89L900 90L900 0L878.5 0C857 0 814 0 771.2 0C728.3 0 685.7 0 642.8 0C600 0 557 0 514.2 0C471.3 0 428.7 0 385.8 0C343 0 300 0 257.2 0C214.3 0 171.7 0 128.8 0C86 0 43 0 21.5 0L0 0Z" fill="#ffffff" stroke-linecap="round" stroke-linejoin="miter"></path></svg>